<?xml version="1.0" encoding="utf-8"?>

<!DOCTYPE svg PUBLIC "-//W3C//DTD SVG 1.1//EN" "http://www.w3.org/Graphics/SVG/1.1/DTD/svg11.dtd">
<!-- Uploaded to: SVG Repo, www.svgrepo.com, Generator: SVG Repo Mixer Tools -->
<svg height="800px" width="800px" version="1.1" id="_x32_" xmlns="http://www.w3.org/2000/svg" xmlns:xlink="http://www.w3.org/1999/xlink" 
	 viewBox="0 0 512 512"  xml:space="preserve">
<style type="text/css">
	.st0{fill:#000000;}
</style>
<g>
	<path class="st0" d="M274.736,156.802H236.07c-6.976,0-12.624,5.663-12.624,12.631v58.4c0,6.968,5.648,12.625,12.624,12.625h38.666
		c6.968,0,12.624-5.657,12.624-12.625v-58.4C287.361,162.465,281.705,156.802,274.736,156.802z"/>
	<path class="st0" d="M205.328,256.508c-16.828,8.421-53.664,13.677-64.182,10.526C87.06,312.291,39.083,402.226,39.083,402.226
		l61.558-9.467l28.407,56.822c0,0,39.452-110.484,85.747-184.652C222.519,252.564,220.903,248.709,205.328,256.508z"/>
	<path class="st0" d="M369.765,267.034c-10.512,3.151-47.347-2.105-64.175-10.526c-15.575-7.798-17.191-3.944-9.467,8.421
		c46.287,74.168,85.747,184.652,85.747,184.652l28.407-56.822l61.558,9.467C471.834,402.226,423.857,312.291,369.765,267.034z"/>
	<path class="st0" d="M188.886,247.738c3.299-0.926,6.242-1.853,9.148-3.306c2.165-1.082,4.329-2.52,6.197-4.47
		c2.847-2.928,4.559-6.783,5.33-10.452c0.8-3.722,0.978-7.487,0.986-11.943c0-25.248,0-48.399,0-54.716v-6.961
		c-23.188-11.357-47.874-36.754-66.421-54.864c-9.297-9.044-18.385-17.68-28.058-24.589c-9.638-6.879-20.046-12.164-31.78-13.492
		c-3.188-0.348-6.227-0.526-9.14-0.526c-8.888-0.008-16.56,1.623-22.972,4.552c-9.652,4.344-16.087,11.579-19.749,18.814
		c-3.699,7.264-4.937,14.448-4.959,20.245c0.022,5.07-1.157,14.255-4.048,24.389c-2.868,10.178-7.443,21.476-13.914,31.52
		c-5.56,8.688-9.474,18.036-9.504,28.118c-0.067,8.392,3.047,16.969,9.156,24.092c6.101,7.191,14.863,13.173,26.568,18.392
		c35.723,15.871,69.845,22.18,100.061,22.172C155.297,254.714,173.185,252.097,188.886,247.738z M34.583,210.636
		c-4.982-2.974-8.644-5.946-10.971-8.711c-3.514-4.255-4.618-7.776-4.671-11.868c-0.036-4.878,2.084-11.038,6.502-17.873
		c7.731-12.046,12.891-24.952,16.205-36.605c0.667-2.41,1.231-4.715,1.749-6.998c3.484,3.447,7.613,6.479,12.046,9.347
		C53.798,163.118,44.502,189.501,34.583,210.636z M72.36,126.03c-7.806-4.092-13.194-9.17-17.502-12.816
		c-7.643-6.472-5.886-17.028-4.604-20.008l-0.2-0.089c1.304-2.216,3.002-4.3,5.226-6.049c4.026-3.136,9.927-5.67,19.867-5.7
		c2.165,0,4.508,0.126,7.043,0.408c7.213,0.786,14.714,4.24,22.876,10.074c12.225,8.688,25.324,22.44,40.098,36.591
		c7.969,7.598,16.494,15.315,25.812,22.387c-9.549-0.504-21.639-1.875-36.399-4.877C110.441,141.056,87.957,134.282,72.36,126.03z"
		/>
	<path class="st0" d="M502.495,161.939c-6.472-10.044-11.038-21.342-13.914-31.52c-2.891-10.134-4.07-19.319-4.047-24.389
		c-0.022-5.797-1.26-12.98-4.96-20.245c-3.662-7.235-10.096-14.471-19.748-18.814c-6.412-2.928-14.085-4.559-22.973-4.552
		c-2.913,0-5.953,0.178-9.141,0.526c-11.734,1.327-22.142,6.613-31.78,13.492c-9.666,6.909-18.763,15.546-28.058,24.589
		c-18.547,18.11-43.233,43.507-66.421,54.864v6.961c0,6.316,0,29.468,0,54.716c0.008,4.456,0.186,8.221,0.986,11.943
		c0.779,3.67,2.484,7.524,5.33,10.452c1.868,1.95,4.032,3.388,6.197,4.47c2.906,1.453,5.849,2.38,9.148,3.306
		c15.708,4.36,33.588,6.976,53.1,6.976c30.215,0.008,64.338-6.301,100.061-22.172c11.705-5.219,20.468-11.201,26.568-18.392
		c6.108-7.124,9.222-15.7,9.155-24.092C511.969,179.975,508.055,170.627,502.495,161.939z M457.142,113.214
		c-4.307,3.646-9.696,8.725-17.502,12.816c-15.596,8.252-38.081,15.026-62.218,19.92c-14.759,3.002-26.85,4.373-36.39,4.877
		c9.311-7.072,17.836-14.789,25.804-22.387c14.774-14.151,27.874-27.903,40.097-36.591c8.162-5.834,15.664-9.288,22.877-10.074
		c2.536-0.282,4.878-0.408,7.043-0.408c9.94,0.03,15.842,2.564,19.866,5.7c2.224,1.75,3.922,3.833,5.226,6.049l-0.2,0.089
		C463.028,96.186,464.785,106.742,457.142,113.214z"/>
</g>
</svg>